<svg id="Layer_1" data-name="Layer 1" xmlns="http://www.w3.org/2000/svg" width="2000" height="500" viewBox="0 1000 2000 500"><defs><style>.cls-1{fill:#464747;}</style></defs><title>Artboard 1</title><path class="cls-1" d="M163,1213q-11.73-10.32-32.37-10.32H96.28v121.68h19.44V1282h17.55q14.6,0,23.84-5.69a34.77,34.77,0,0,0,13.52-15,47,47,0,0,0,4.15-19.56C174.78,1229.43,170.87,1220,163,1213Zm-9.72,38.54a20.66,20.66,0,0,1-7,8.42c-3.32,2.25-7.59,3.44-13,3.44H115.72v-42h18.15c7.71,0,13.28,2.13,16.6,6.52a22.5,22.5,0,0,1,4.86,14.23A23.06,23.06,0,0,1,153.32,1251.49Z"/><path class="cls-1" d="M391.57,1277.34a32.89,32.89,0,0,0,14.94-14.82,45.59,45.59,0,0,0,4.74-20.75c0-12.34-4.15-21.82-12.33-28.82s-19-10.32-32.61-10.32H332v121.68H351.6V1282h19.57l27.39,42.34H421.1Zm-5.7-20.51c-3.43,4.39-9.13,6.52-16.95,6.52H351.6v-42h18c5.22,0,9.48,1.07,12.69,3.44a18.87,18.87,0,0,1,6.88,8.18,24.78,24.78,0,0,1,2,9.37A21.86,21.86,0,0,1,385.87,1256.83Z"/><path class="cls-1" d="M597.32,1305.57v-33.09h54.44v-18.74H597.32v-32.37H658.4v-18.74H577.75v121.68h83v-18.74Z"/><path class="cls-1" d="M888.94,1273.19a33.18,33.18,0,0,0-10.67-11.14,74.93,74.93,0,0,0-15.42-7.24c-8-3.08-14.11-6-18.5-9.13s-6.64-6.88-6.64-11.5a13.19,13.19,0,0,1,5.33-11c3.44-2.61,8.31-3.92,14.24-3.92,8.18,0,17.43,2.73,28,8.19l7.35-15a66,66,0,0,0-17-7.7,71.26,71.26,0,0,0-21.23-2.85c-11,.47-19.92,3.79-26.57,9.84s-10.2,14-10.2,24c0,6.76,1.67,12.45,5,17a36.67,36.67,0,0,0,11.74,10.55,145.67,145.67,0,0,0,17.19,7.59q10.14,3.92,15.66,8.54a14.38,14.38,0,0,1,5.57,11.74c0,5.81-2.13,10.2-6.64,13.05a28.35,28.35,0,0,1-15.54,4.26,47.31,47.31,0,0,1-15.65-3.08,56.63,56.63,0,0,1-14.59-7.71l-8.66,15.18a66,66,0,0,0,19,9.37,68.14,68.14,0,0,0,21.7,3.44c8.42,0,15.66-1.54,21.82-4.63a34.38,34.38,0,0,0,14-12.57,32.8,32.8,0,0,0,4.86-17.55C893.09,1283.75,891.67,1277.82,888.94,1273.19Z"/><path class="cls-1" d="M1071.92,1305.57v-33.09h54.44v-18.74h-54.44v-32.37h61.2v-18.74h-80.76v121.68h83v-18.74Z"/><path class="cls-1" d="M1384.06,1202.63l.35,81.95-87.4-86.1h-1v125.83h19.69l-.48-80.76,87.76,85.14h.48V1202.63Z"/><path class="cls-1" d="M1652.9,1297.39a39.29,39.29,0,0,1-12,6.87,45.35,45.35,0,0,1-16,2.61c-8.19,0-15.54-1.78-21.82-5.57a36.65,36.65,0,0,1-14.47-15.54,48,48,0,0,1-5.1-22.41,44.2,44.2,0,0,1,5.45-21.82,43.09,43.09,0,0,1,14.83-15.77,37.29,37.29,0,0,1,19.92-5.7c9.37,0,18.62,3.09,27.63,9.49l7.71-18.26a74.29,74.29,0,0,0-16.13-7.12,66,66,0,0,0-19.8-2.84,60.32,60.32,0,0,0-31.07,8.06,57.18,57.18,0,0,0-21.23,22.53,69.17,69.17,0,0,0-7.59,32.5,64.06,64.06,0,0,0,7.59,30.71,56.55,56.55,0,0,0,21.7,22.18c9.49,5.57,20.52,8.3,33.09,8.3a60.78,60.78,0,0,0,20.63-3.44,68.63,68.63,0,0,0,14.83-7.35Z"/><path class="cls-1" d="M1840.16,1305.57v-33.09h54.55v-18.74h-54.55v-32.37h61.19v-18.74h-80.64v121.68h83v-18.74Z"/></svg>
