<svg id="Layer_1" data-name="Layer 1" xmlns="http://www.w3.org/2000/svg" viewBox="500 600 1000 600"><defs><style>.cls-1{fill:#464747;}</style></defs><title>Artboard 1</title><path class="cls-1" d="M1157.28,743.18A556.48,556.48,0,0,0,1073.7,715c-14.12-3.73-28.38-6.89-42.72-9.37s-28.66-4.75-43.06-6.19c-57.6-5.9-115.67-2.4-171.22,11.69a469.07,469.07,0,0,0-81,28.57c-6.39,2.74-13.63,6.27-20.71,9.16s-14.38,5.61-21.76,7.89a267,267,0,0,1-91,12.37c-3.89-.27-7-.22-10.27-.26a64.89,64.89,0,0,0-9.71,1.2,60.87,60.87,0,0,0-18.56,6.84,68,68,0,0,0-16,12.33A72,72,0,0,0,536,806.27c-6.7,12.51-6.74,27.57-8.39,42.37-.72-7.44-1.59-14.68-1.9-22.29a69,69,0,0,1,3.13-22.86,73.06,73.06,0,0,1,10.51-21.11,80,80,0,0,1,17-17,73.25,73.25,0,0,1,21.92-10.8,82.3,82.3,0,0,1,12.08-2.76c4.13-.43,8.38-.83,11.89-.94a271.21,271.21,0,0,0,42.32-5.38,290.61,290.61,0,0,0,40.76-11.93c6.64-2.43,13.13-5.29,19.59-8.14s12.44-6.15,19.52-9.53a426.82,426.82,0,0,1,266.51-37.87,462.44,462.44,0,0,1,86.95,24C1105.7,713.11,1132.92,726,1157.28,743.18Z"/><path class="cls-1" d="M743.07,766.33c4.19,7.74,11.15,13.21,18.18,17.92,3.67,2.17,7.45,4.17,11.17,6.17l11.86,4.75c4,1.43,8.22,2.34,12.26,3.61l6.12,1.75,6.31,1.16L821.53,804c4.2.69,8.52.89,12.76,1.36L847,806.72c4.26.29,8.57.3,12.85.47,8.58.14,17.07.84,25.69.24,8.6-.37,17.17-.56,25.73-.77,8.58-.59,17.17-1.43,25.73-2.12,34.26-3.17,68.46-8,102.45-14.26,34.25-5.82,67.24-13.84,102.88-19.85,34.85-5.15,69.71-9.58,104.89-12.24,17.56-1.23,35.18-2.11,52.73-2.69,8.73-.28,17.22-.75,26.93-.52,2.35.09,4.71,0,7,.23l7,.89,7,.91c2.31.39,4.58,1,6.87,1.5A153.08,153.08,0,0,1,1446,817.57a150.75,150.75,0,0,1,23.37,48.68,99.34,99.34,0,0,1,2.87,13.1l1.16,6.56.54,6.65a91.62,91.62,0,0,1,.36,13.25c-.18,4.41-.14,8.78-.58,13.14-1.46-17.48-5.1-34.49-11.63-50.23a146.75,146.75,0,0,0-26.68-42.61,142.91,142.91,0,0,0-84.64-46.36c-16.26-2.71-31.48-1.35-49.48,0-17.3,1.23-34.5,2.74-51.7,4.59-34.36,3.38-68.76,8-102.88,13.46-33.28,5-68.27,13.34-103,18.32-34.9,4.85-70,9.25-105.41,9.93-8.86.18-17.7.49-26.54.54-8.89-.31-17.77-.6-26.62-1.07-8.85-.16-17.73-1.62-26.56-2.53-4.42-.55-8.83-1-13.23-1.63l-13.15-2.6c-4.37-1-8.75-1.66-13.06-2.86L806.23,812l-6.4-1.93-6.25-2.54c-4.13-1.76-8.31-3.32-12.31-5.36l-11.72-6.6c-3.65-2.65-7.34-5.22-10.8-8C752.2,781.51,746,774.67,743.07,766.33Z"/><path class="cls-1" d="M893.12,935.08c44-3.9,87.89-6,131.84-7.79l33-1.09c10.95-.49,22.15-.41,32.48-1.23a213.4,213.4,0,0,0,31.2-4.9,210.23,210.23,0,0,0,30.28-9.06,263.73,263.73,0,0,0,28.86-13.28c2.37-1.2,4.65-2.6,7-3.89l7.41-4.24c5-2.84,10.19-5.44,15.39-8a188.45,188.45,0,0,1,32.52-12c11.2-3,22.71-5.16,34.42-5.43a120.5,120.5,0,0,1,34.82,3.87,109,109,0,0,1,31.92,14.57c19.5,13.19,34.38,32,44.79,52.46-14.54-17.51-31-33-50.09-42.37a99.62,99.62,0,0,0-29.61-9.61,104.74,104.74,0,0,0-30.72-.76c-20.56,2-40.56,9.38-59.59,18.76-4.76,2.4-9.48,4.88-14.1,7.59l-7,4.17c-2.51,1.45-5,3-7.53,4.37a209,209,0,0,1-31.59,14.33,229.64,229.64,0,0,1-33.22,9.34,223.32,223.32,0,0,1-34.17,3.62c-11.63.29-22.4-.22-33.42-.55l-33-1.09C981,941.1,937.07,939,893.12,935.08Z"/><path class="cls-1" d="M1375.43,957c3.6,25.8-5.55,53.9-24.22,74-18.41,20.47-46.14,32.49-74,32.51s-55.65-12-74.07-32.5c-18.68-20.14-27.82-48.26-24.21-74.06,3.45,25.73,15.46,48.74,33.37,64.9s41.29,25.25,64.91,25.07c23.63.2,47-9,64.93-25.05S1372,982.69,1375.43,957Z"/><path class="cls-1" d="M806.25,973.44a90.56,90.56,0,0,1-23.4,46.29c-12.25,12.91-28.28,22.22-45.47,27.52-34.68,10.5-74.53,2.27-102.51-21.38l6.61,1.12c-27.23,10-54.5,20-82.07,29.19l-18.57,6.2L553.59,1048l28.47-32c9.54-10.63,19.44-21,29.15-31.46l-.15,1.09-3.46-12.16,5.37,11.3.27.54-.42.55c-8.43,11.55-16.67,23.26-25.26,34.68l-25.95,34.1-5.84-8.15c26.82-11.19,53.9-21.63,81-32l3.59-1.36,3,2.49a104.18,104.18,0,0,0,43,21.16,108,108,0,0,0,48.26.11c15.85-3.6,31.21-11,43.49-22.09C791,1004.2,800.31,989.61,806.25,973.44Z"/><path class="cls-1" d="M607.79,919.79c3.68-21.17,16.34-41.23,34.38-54.55,17.88-13.7,40.7-20.35,63.21-20.35,22.56.4,45.07,7.48,62.93,21.1,18.07,13.16,31,32.82,35.63,53.8a111.67,111.67,0,0,0-98.69-61.46C665.29,857.51,625.33,880.32,607.79,919.79Z"/><path class="cls-1" d="M740.1,940.93h-6a18.52,18.52,0,1,0,18.52-18.51,18.53,18.53,0,0,0-18.52,18.51h12a6.49,6.49,0,1,1,6.49,6.48,6.52,6.52,0,0,1-6.49-6.48Z"/><path class="cls-1" d="M689.05,940.93h-6a18.51,18.51,0,1,0,18.51-18.51A18.52,18.52,0,0,0,683,940.93h12a6.48,6.48,0,1,1,6.48,6.48,6.5,6.5,0,0,1-6.48-6.48Z"/><path class="cls-1" d="M638,940.93h-6a18.52,18.52,0,1,0,18.52-18.51A18.53,18.53,0,0,0,632,940.93h12a6.49,6.49,0,1,1,6.49,6.48,6.52,6.52,0,0,1-6.49-6.48Z"/></svg>
