<svg id="Layer_1" data-name="Layer 1" xmlns="http://www.w3.org/2000/svg" viewBox="0 0 1807.45 657.39"><title>final_logo_black</title><path d="M163,1213q-11.73-10.32-32.37-10.32H96.28v121.68h19.44V1282h17.55q14.6,0,23.84-5.69a34.77,34.77,0,0,0,13.52-15,47,47,0,0,0,4.15-19.56C174.78,1229.43,170.87,1220,163,1213Zm-9.72,38.54a20.66,20.66,0,0,1-7,8.42c-3.32,2.25-7.59,3.44-13,3.44H115.72v-42h18.15c7.71,0,13.28,2.13,16.6,6.52a22.5,22.5,0,0,1,4.86,14.23A23.06,23.06,0,0,1,153.32,1251.49Z" transform="translate(-96.28 -671.31)"/><path d="M391.57,1277.34a32.89,32.89,0,0,0,14.94-14.82,45.59,45.59,0,0,0,4.74-20.75c0-12.34-4.15-21.82-12.33-28.82s-19-10.32-32.61-10.32H332v121.68H351.6V1282h19.57l27.39,42.34H421.1Zm-5.7-20.51c-3.43,4.39-9.13,6.52-16.95,6.52H351.6v-42h18c5.22,0,9.48,1.07,12.69,3.44a18.87,18.87,0,0,1,6.88,8.18,24.78,24.78,0,0,1,2,9.37A21.86,21.86,0,0,1,385.87,1256.83Z" transform="translate(-96.28 -671.31)"/><path d="M597.32,1305.57v-33.09h54.44v-18.74H597.32v-32.37H658.4v-18.74H577.75v121.68h83v-18.74Z" transform="translate(-96.28 -671.31)"/><path d="M888.94,1273.19a33.18,33.18,0,0,0-10.67-11.14,74.93,74.93,0,0,0-15.42-7.24c-8-3.08-14.11-6-18.5-9.13s-6.64-6.88-6.64-11.5a13.19,13.19,0,0,1,5.33-11c3.44-2.61,8.31-3.92,14.24-3.92,8.18,0,17.43,2.73,28,8.19l7.35-15a66,66,0,0,0-17-7.7,71.26,71.26,0,0,0-21.23-2.85c-11,.47-19.92,3.79-26.57,9.84s-10.2,14-10.2,24c0,6.76,1.67,12.45,5,17a36.67,36.67,0,0,0,11.74,10.55,145.67,145.67,0,0,0,17.19,7.59q10.14,3.92,15.66,8.54a14.38,14.38,0,0,1,5.57,11.74c0,5.81-2.13,10.2-6.64,13.05a28.35,28.35,0,0,1-15.54,4.26,47.31,47.31,0,0,1-15.65-3.08,56.63,56.63,0,0,1-14.59-7.71l-8.66,15.18a66,66,0,0,0,19,9.37,68.14,68.14,0,0,0,21.7,3.44c8.42,0,15.66-1.54,21.82-4.63a34.38,34.38,0,0,0,14-12.57,32.8,32.8,0,0,0,4.86-17.55C893.09,1283.75,891.67,1277.82,888.94,1273.19Z" transform="translate(-96.28 -671.31)"/><path d="M1071.92,1305.57v-33.09h54.44v-18.74h-54.44v-32.37h61.2v-18.74h-80.76v121.68h83v-18.74Z" transform="translate(-96.28 -671.31)"/><path d="M1384.06,1202.63l.35,81.95-87.4-86.1h-1v125.83h19.69l-.48-80.76,87.76,85.14h.48V1202.63Z" transform="translate(-96.28 -671.31)"/><path d="M1652.9,1297.39a39.29,39.29,0,0,1-12,6.87,45.35,45.35,0,0,1-16,2.61c-8.19,0-15.54-1.78-21.82-5.57a36.65,36.65,0,0,1-14.47-15.54,48,48,0,0,1-5.1-22.41,44.2,44.2,0,0,1,5.45-21.82,43.09,43.09,0,0,1,14.83-15.77,37.29,37.29,0,0,1,19.92-5.7c9.37,0,18.62,3.09,27.63,9.49l7.71-18.26a74.29,74.29,0,0,0-16.13-7.12,66,66,0,0,0-19.8-2.84,60.32,60.32,0,0,0-31.07,8.06,57.18,57.18,0,0,0-21.23,22.53,69.17,69.17,0,0,0-7.59,32.5,64.06,64.06,0,0,0,7.59,30.71,56.55,56.55,0,0,0,21.7,22.18c9.49,5.57,20.52,8.3,33.09,8.3a60.78,60.78,0,0,0,20.63-3.44,68.63,68.63,0,0,0,14.83-7.35Z" transform="translate(-96.28 -671.31)"/><path d="M1840.16,1305.57v-33.09h54.55v-18.74h-54.55v-32.37h61.19v-18.74h-80.64v121.68h83v-18.74Z" transform="translate(-96.28 -671.31)"/><path d="M1157.28,743.18A556.48,556.48,0,0,0,1073.7,715c-14.12-3.73-28.38-6.89-42.72-9.37s-28.66-4.75-43.06-6.19c-57.6-5.9-115.67-2.4-171.22,11.69a469.07,469.07,0,0,0-81,28.57c-6.39,2.74-13.63,6.27-20.71,9.16s-14.38,5.61-21.76,7.89a267,267,0,0,1-91,12.37c-3.89-.27-7-.22-10.27-.26a64.89,64.89,0,0,0-9.71,1.2,60.87,60.87,0,0,0-18.56,6.84,68,68,0,0,0-16,12.33A72,72,0,0,0,536,806.27c-6.7,12.51-6.74,27.57-8.39,42.37-.72-7.44-1.59-14.68-1.9-22.29a69,69,0,0,1,3.13-22.86,73.06,73.06,0,0,1,10.51-21.11,80,80,0,0,1,17-17,73.25,73.25,0,0,1,21.92-10.8,82.3,82.3,0,0,1,12.08-2.76c4.13-.43,8.38-.83,11.89-.94a271.21,271.21,0,0,0,42.32-5.38,290.61,290.61,0,0,0,40.76-11.93c6.64-2.43,13.13-5.29,19.59-8.14s12.44-6.15,19.52-9.53a426.82,426.82,0,0,1,266.51-37.87,462.44,462.44,0,0,1,86.95,24C1105.7,713.11,1132.92,726,1157.28,743.18Z" transform="translate(-96.28 -671.31)"/><path d="M743.07,766.33c4.19,7.74,11.15,13.21,18.18,17.92,3.67,2.17,7.45,4.17,11.17,6.17l11.86,4.75c4,1.43,8.22,2.34,12.26,3.61l6.12,1.75,6.31,1.16L821.53,804c4.2.69,8.52.89,12.76,1.36L847,806.72c4.26.29,8.57.3,12.85.47,8.58.14,17.07.84,25.69.24,8.6-.37,17.17-.56,25.73-.77,8.58-.59,17.17-1.43,25.73-2.12,34.26-3.17,68.46-8,102.45-14.26,34.25-5.82,67.24-13.84,102.88-19.85,34.85-5.15,69.71-9.58,104.89-12.24,17.56-1.23,35.18-2.11,52.73-2.69,8.73-.28,17.22-.75,26.93-.52,2.35.09,4.71,0,7,.23l7,.89,7,.91c2.31.39,4.58,1,6.87,1.5A153.08,153.08,0,0,1,1446,817.57a150.75,150.75,0,0,1,23.37,48.68,99.34,99.34,0,0,1,2.87,13.1l1.16,6.56.54,6.65a91.62,91.62,0,0,1,.36,13.25c-.18,4.41-.14,8.78-.58,13.14-1.46-17.48-5.1-34.49-11.63-50.23a146.75,146.75,0,0,0-26.68-42.61,142.91,142.91,0,0,0-84.64-46.36c-16.26-2.71-31.48-1.35-49.48,0-17.3,1.23-34.5,2.74-51.7,4.59-34.36,3.38-68.76,8-102.88,13.46-33.28,5-68.27,13.34-103,18.32-34.9,4.85-70,9.25-105.41,9.93-8.86.18-17.7.49-26.54.54-8.89-.31-17.77-.6-26.62-1.07-8.85-.16-17.73-1.62-26.56-2.53-4.42-.55-8.83-1-13.23-1.63l-13.15-2.6c-4.37-1-8.75-1.66-13.06-2.86L806.23,812l-6.4-1.93-6.25-2.54c-4.13-1.76-8.31-3.32-12.31-5.36l-11.72-6.6c-3.65-2.65-7.34-5.22-10.8-8C752.2,781.51,746,774.67,743.07,766.33Z" transform="translate(-96.28 -671.31)"/><path d="M893.12,935.08c44-3.9,87.89-6,131.84-7.79l33-1.09c10.95-.49,22.15-.41,32.48-1.23a213.4,213.4,0,0,0,31.2-4.9,210.23,210.23,0,0,0,30.28-9.06,263.73,263.73,0,0,0,28.86-13.28c2.37-1.2,4.65-2.6,7-3.89l7.41-4.24c5-2.84,10.19-5.44,15.39-8a188.45,188.45,0,0,1,32.52-12c11.2-3,22.71-5.16,34.42-5.43a120.5,120.5,0,0,1,34.82,3.87,109,109,0,0,1,31.92,14.57c19.5,13.19,34.38,32,44.79,52.46-14.54-17.51-31-33-50.09-42.37a99.62,99.62,0,0,0-29.61-9.61,104.74,104.74,0,0,0-30.72-.76c-20.56,2-40.56,9.38-59.59,18.76-4.76,2.4-9.48,4.88-14.1,7.59l-7,4.17c-2.51,1.45-5,3-7.53,4.37a209,209,0,0,1-31.59,14.33,229.64,229.64,0,0,1-33.22,9.34,223.32,223.32,0,0,1-34.17,3.62c-11.63.29-22.4-.22-33.42-.55l-33-1.09C981,941.1,937.07,939,893.12,935.08Z" transform="translate(-96.28 -671.31)"/><path d="M1375.43,957c3.6,25.8-5.55,53.9-24.22,74-18.41,20.47-46.14,32.49-74,32.51s-55.65-12-74.07-32.5c-18.68-20.14-27.82-48.26-24.21-74.06,3.45,25.73,15.46,48.74,33.37,64.9s41.29,25.25,64.91,25.07c23.63.2,47-9,64.93-25.05S1372,982.69,1375.43,957Z" transform="translate(-96.28 -671.31)"/><path d="M806.25,973.44a90.56,90.56,0,0,1-23.4,46.29c-12.25,12.91-28.28,22.22-45.47,27.52-34.68,10.5-74.53,2.27-102.51-21.38l6.61,1.12c-27.23,10-54.5,20-82.07,29.19l-18.57,6.2L553.59,1048l28.47-32c9.54-10.63,19.44-21,29.15-31.46l-.15,1.09-3.46-12.16,5.37,11.3.27.54-.42.55c-8.43,11.55-16.67,23.26-25.26,34.68l-25.95,34.1-5.84-8.15c26.82-11.19,53.9-21.63,81-32l3.59-1.36,3,2.49a104.18,104.18,0,0,0,43,21.16,108,108,0,0,0,48.26.11c15.85-3.6,31.21-11,43.49-22.09C791,1004.2,800.31,989.61,806.25,973.44Z" transform="translate(-96.28 -671.31)"/><path d="M607.79,919.79c3.68-21.17,16.34-41.23,34.38-54.55,17.88-13.7,40.7-20.35,63.21-20.35,22.56.4,45.07,7.48,62.93,21.1,18.07,13.16,31,32.82,35.63,53.8a111.67,111.67,0,0,0-98.69-61.46C665.29,857.51,625.33,880.32,607.79,919.79Z" transform="translate(-96.28 -671.31)"/><path d="M740.1,940.93h-6a18.52,18.52,0,1,0,18.52-18.51,18.53,18.53,0,0,0-18.52,18.51h12a6.49,6.49,0,1,1,6.49,6.48,6.52,6.52,0,0,1-6.49-6.48Z" transform="translate(-96.28 -671.31)"/><path d="M689.05,940.93h-6a18.51,18.51,0,1,0,18.51-18.51A18.52,18.52,0,0,0,683,940.93h12a6.48,6.48,0,1,1,6.48,6.48,6.5,6.5,0,0,1-6.48-6.48Z" transform="translate(-96.28 -671.31)"/><path d="M638,940.93h-6a18.52,18.52,0,1,0,18.52-18.51A18.53,18.53,0,0,0,632,940.93h12a6.49,6.49,0,1,1,6.49,6.48,6.52,6.52,0,0,1-6.49-6.48Z" transform="translate(-96.28 -671.31)"/></svg>